<svg xmlns="http://www.w3.org/2000/svg" fill="none" viewBox="0 0 1080 1080" width="32" height="32"><defs><filter id="a" width="140%" height="140%" x="-20%" y="-20%" color-interpolation-filters="linearRGB" filterUnits="objectBoundingBox" primitiveUnits="userSpaceOnUse"><feMorphology in="SourceAlpha" operator="dilate" radius="20 20" result="morphology"/><feFlood flood-color="#fff" flood-opacity="1" result="flood"/><feComposite in="flood" in2="morphology" operator="in" result="composite"/><feMerge result="merge"><feMergeNode in="composite"/><feMergeNode in="SourceGraphic"/></feMerge></filter></defs><g filter="url(#a)"><g fill="#fff"><path fill-rule="evenodd" stroke="#000" stroke-linecap="round" stroke-linejoin="round" stroke-width="24" d="M532 379c132.548 0 240 107.452 240 240s-67.452 240-240 240c-126.157 0-196.133-57.44-224.641-140.133C265.337 716.465 232 681.625 232 639c0-39.865 29.159-72.92 67.312-79C325.6 455.98 419.81 379 532 379M295.859 624.545l8.282 30.91"/></g><path fill-rule="evenodd" stroke="#000" stroke-linecap="round" stroke-linejoin="round" stroke-width="16" d="M649 600q50 20 50 50t-50 30"/><path fill-rule="evenodd" stroke="#000" stroke-linecap="round" stroke-linejoin="round" stroke-width="16" d="M549 759q40.995 10 70 10 29.004 0 50-10"/><g fill-rule="evenodd" transform="translate(518 518.576)"><circle cx="48.229" cy="20" r="20" fill="#000"/><path stroke="#000" stroke-linecap="round" stroke-linejoin="round" stroke-width="12" d="M0 22.424q24-20 48-20t48 20"/><circle cx="193.771" cy="20" r="20" fill="#000" transform="matrix(-1 0 0 1 387.543 0)"/><path stroke="#000" stroke-linecap="round" stroke-linejoin="round" stroke-width="12" d="M242 22.424q-24-20-48-20t-48 20"/></g><g fill="#000" fill-rule="evenodd" stroke="#000" stroke-linecap="round" stroke-linejoin="round" stroke-width="8" clip-rule="evenodd"><path d="M682.541 491.005s46.103-1.789 59.272 4.144 11.397 16.335 11.397 16.335-6.791-7.492-15.87-12.136c-9.08-4.645-54.799-8.343-54.799-8.343M595.459 491.005s-46.103-1.789-59.272 4.144-11.397 16.335-11.397 16.335 6.791-7.492 15.87-12.136c9.08-4.645 54.799-8.343 54.799-8.343"/></g><path fill="#000" fill-rule="evenodd" stroke="#000" stroke-linecap="round" stroke-linejoin="round" stroke-width="4" d="M574.19 502.354q18.633 1.34 43.22 9.343 7.046 2.294 22.24 2.658l.687-.017q14.667-.399 21.555-2.64 24.585-8.003 43.22-9.344 26.377-1.898 85.001 6.378l1.188.168v20.73q-7.505 3.297-7.637 6.545C781.482 589.635 763.64 606 723.658 606c-38.506 0-56.798-20.904-73.097-64.37q-3.205-8.545-10.594-8.724l-.317-.004q-7.636 0-10.91 8.728C612.44 585.096 594.15 606 555.643 606c-39.982 0-57.824-16.365-60.006-69.825q-.133-3.247-7.636-6.545L488 530l-199 20 4-9 194.999-32 .001-.1q59.545-8.463 86.19-6.546m-9.578 6.617c-31.64-2.182-45.823 4.365-52.369 12.002s-18.547 74.188 39.276 77.461 63.28-64.37 60.006-72.006c-3.273-7.637-15.274-15.274-46.913-17.457m149.969 0c-31.64 2.183-43.64 9.82-46.914 17.457-3.273 7.637 2.183 75.28 60.006 72.006 57.824-3.273 45.823-69.824 39.276-77.461s-20.729-14.184-52.368-12.002"/><g fill="#000"><path fill-rule="evenodd" d="m279.001 719 33 8 51 77-.989.138q-11.427 1.548-14.011-.138c-12.891-8.414-20.334-22.765-32-35q-21.157-22.19-37-50m276-474c40.483 4.465 75.916 23.728 105.823 49.427l2.486.474c40.639 7.891 85.002 16.602 104.691 45.099q38 54.999 31 129c-16.94-39.968-43-72-58.968-75.432 20.876 36.59 27.968 67.616 27.968 79.432 0 39-16.667 79.666-24 105 0-34.667-7.667-92.667-53-136-53.982-51.601-149.183-24-189-24-30.725 0-14.034 46.879-41.38 81.411C464.677 513 473.001 533 494.001 552c-32.44-.017-45.273-19.459-55.185-40.144l-3.329.554c-2.597.437-5.185.9-7.576 1.469q4.786 19.599 21.345 46.803-21.78-18.489-31.405-42.034a5.9 5.9 0 0 0-.85 1.352c-23.636 52.739-24 73-36 135h-15l-1.372-3.149Q342.581 601.46 329.001 584l-.841-1.071C314.41 565.583 299.959 555.5 288.001 559l-.755.23-.535.173c-8.787 2.903-28.47 12.324-42.71 29.597q-7.876 9.553-17 36l-.935-1.406-1.365-2.077q-19.041-29.17-20.7-43.517c-3.882-33.558-8-144 28-195s47.907-44.467 76-51c24-80.667 109.201-102.199 247-87" clip-rule="evenodd"/><path d="m279.001 719 1.413-5.831a5.999 5.999 0 0 0-6.627 8.801zm33 8 5.002-3.313a6 6 0 0 0-3.589-2.518zm51 77 .828 5.942a5.997 5.997 0 0 0 4.174-9.255zm-.989.138.806 5.945.022-.003zM348.001 804l3.279-5.025zm-32-35-4.343 4.14zm239-524-.658 5.964zm105.823 49.427-3.91 4.55a6 6 0 0 0 2.785 1.343zm2.486.474 1.143-5.89-.018-.003zM768.001 340l-4.937 3.41zm31 129-5.524 2.341a5.998 5.998 0 0 0 11.497-1.776zm-58.968-75.432 1.261-5.866a6 6 0 0 0-6.473 8.84zM744.001 578h-6a6 6 0 0 0 11.763 1.668zm-53-136-4.146 4.337zm-230.38 57.411-4.703-3.725a6 6 0 0 0-1.046 5.441zM494.001 552l-.003 6a6 6 0 0 0 4.028-10.449zm-55.185-40.144 5.411-2.593a6 6 0 0 0-6.397-3.326zm-3.329.554-.986-5.918-.01.001zm-7.576 1.469-1.39-5.837a6 6 0 0 0-4.439 7.26zm21.345 46.803-3.883 4.574a5.999 5.999 0 0 0 9.008-7.693zm-31.405-42.034 5.554-2.271a6 6 0 0 0-10.17-1.563zm-.85 1.352-5.475-2.454zm-36 135v6a6 6 0 0 0 5.891-4.86zm-15 0-5.501 2.397a6 6 0 0 0 5.501 3.603zm-1.372-3.149 5.5-2.396-.003-.009zM329.001 584l4.736-3.684-.017-.021zm-.841-1.071 4.719-3.706-.017-.021zM288.001 559l-1.685-5.759-.065.019zm-.755.23-1.749-5.74-.097.031zm-.535.173-1.846-5.709-.036.012zM244.001 589l-4.63-3.817zm-17 36-4.997 3.322a6 6 0 0 0 10.669-1.365zm-.935-1.406-5.013 3.296.017.026zm-1.365-2.077-5.025 3.279.011.017zM204.001 578l5.96-.69zm104-246 1.359 5.844a6 6 0 0 0 4.392-4.133zm-30.414 392.831 33 8 2.827-11.662-33-8zm29.412 5.482 51 77 10.004-6.626-51-77zm55.174 67.744-.988.138 1.655 11.885.989-.138zm-.967.135c-3.68.499-6.43.705-8.351.686-.96-.009-1.577-.075-1.929-.139-.418-.077-.156-.097.354.236l-6.559 10.049c1.373.896 2.864 1.303 4.044 1.519 1.247.228 2.596.321 3.972.334 2.749.027 6.143-.26 10.081-.794zm-9.926.783c-5.611-3.662-10.207-8.727-15.051-14.788-4.682-5.857-9.812-12.957-15.886-19.328l-8.685 8.281c5.593 5.866 10.018 12.059 15.197 18.539 5.016 6.277 10.587 12.594 17.866 17.345zm-30.937-34.116c-13.753-14.424-25.798-30.694-36.129-48.829l-10.427 5.94c10.793 18.946 23.415 36.009 37.871 51.17zm234-513.895c38.95 4.296 73.29 22.853 102.571 48.013l7.821-9.101c-30.534-26.238-67.06-46.206-109.076-50.84zm105.356 49.356 2.486.475 2.25-11.787-2.486-.475zm2.467.471c20.415 3.964 41.193 8.036 59.308 14.576 18.138 6.547 32.779 15.291 41.59 28.043l9.873-6.821c-10.878-15.744-28.262-25.605-47.388-32.509-19.148-6.913-40.872-11.142-61.096-15.069zm100.898 42.619c24.44 35.374 34.513 76.929 29.964 125.025l11.946 1.13c4.784-50.571-5.81-95.016-32.037-132.976zm41.461 123.248c-8.66-20.434-19.676-38.907-30.667-52.798-5.494-6.943-11.064-12.847-16.426-17.296-5.26-4.364-10.77-7.708-16.138-8.862l-2.522 11.733c2.615.561 6.351 2.509 10.998 6.364 4.545 3.772 9.542 9.017 14.677 15.507 10.266 12.974 20.751 30.501 29.03 50.035zm-69.704-70.116c20.575 36.061 27.18 66.047 27.18 76.458h12c0-13.22-7.579-45.286-28.757-82.405zM762.001 473c0 18.707-4.006 38.019-9.029 56.011-2.506 8.977-5.244 17.554-7.834 25.526-2.572 7.918-5.032 15.341-6.901 21.794l11.527 3.337c1.799-6.213 4.172-13.374 6.787-21.424 2.598-7.997 5.402-16.774 7.979-26.006 5.144-18.424 9.471-38.945 9.471-59.238zm-12 105c0-35.325-7.778-95.338-54.854-140.337l-8.292 8.674c43.59 41.667 51.146 97.655 51.146 131.663zm-54.854-140.337c-28.716-27.449-68.005-33.469-104.034-33.013-18.095.229-35.679 2.1-51.065 3.883C524.45 410.341 511.51 412 502.001 412v12c10.4 0 24.291-1.792 39.429-3.546 15.349-1.78 32.405-3.584 49.835-3.805 35.021-.444 70.324 5.536 95.59 29.688zM502.001 412c-4.614 0-8.722.884-12.295 2.784-3.59 1.909-6.282 4.653-8.329 7.828-3.907 6.055-5.71 14.135-7.225 22.01-3.184 16.541-5.669 35.196-18.234 51.064l9.407 7.45c14.78-18.665 17.622-40.715 20.61-56.246 1.571-8.162 3.065-13.96 5.525-17.773 1.136-1.76 2.395-2.948 3.88-3.738 1.502-.799 3.593-1.379 6.661-1.379zm-47.129 89.127c4.265 14.288 13.054 35.373 35.103 55.322l8.051-8.898c-19.951-18.051-27.808-36.966-31.655-49.856zM494.004 546c-14.869-.008-24.756-4.41-32.09-10.834-7.541-6.607-12.799-15.703-17.687-25.903l-10.822 5.186c5.025 10.486 11.139 21.453 20.602 29.743 9.671 8.472 22.42 13.799 39.991 13.808zm-56.174-40.063-3.329.555 1.972 11.837 3.329-.555zm-3.339.556c-2.612.44-5.369.93-7.97 1.549l2.78 11.674c2.182-.52 4.6-.954 7.182-1.389zm-12.409 8.809c3.397 13.907 10.852 30.105 22.048 48.5l10.251-6.239c-10.881-17.877-17.656-32.882-20.641-45.108zm31.057 40.806c-13.878-11.781-23.725-25.029-29.734-39.731l-11.108 4.541c6.824 16.693 17.914 31.467 33.076 44.338zm-39.904-41.294a11.9 11.9 0 0 0-1.709 2.732l10.95 4.908a.3.3 0 0 1-.023.044q-.007.01.013-.016zm-1.709 2.732c-23.992 53.534-24.483 74.661-36.416 136.314l11.782 2.28c12.067-62.348 12.305-81.743 35.584-133.686zM381.001 649h-15v12h15zm-9.5 3.603-1.372-3.148-11.001 4.793 1.372 3.149zm-1.375-3.157c-14.69-33.574-26.823-56.83-36.389-69.13l-9.472 7.367c8.54 10.981 20.159 32.959 34.867 66.573zm-36.406-69.151-.841-1.072-9.438 7.411.841 1.071zm-.858-1.093c-7.107-8.966-14.652-16.396-22.282-21.148-7.602-4.735-16.013-7.227-24.264-4.813l3.37 11.517c3.707-1.084 8.501-.285 14.551 3.482 6.023 3.752 12.578 10.035 19.221 18.416zm-46.611-25.942-.754.23 3.499 11.479.754-.23zm-.851.261-.535.173 3.693 11.418.535-.173zm-.571.185c-9.511 3.142-30.294 13.084-45.458 31.477l9.259 7.633c13.317-16.152 31.901-25.052 39.964-27.716zm-45.458 31.477c-5.996 7.274-11.946 20.19-18.042 37.86l11.344 3.914c6.069-17.592 11.453-28.677 15.957-34.141zm-7.374 36.495-.934-1.406-9.993 6.644.934 1.406zm-.917-1.38-1.366-2.077-10.027 6.592 1.366 2.077zm-1.355-2.061c-6.258-9.588-11.005-17.832-14.301-24.761-3.33-7-5.019-12.33-5.463-16.166l-11.92 1.379c.662 5.73 2.976 12.435 6.546 19.941 3.604 7.576 8.654 16.308 15.089 26.166zm-19.764-40.927c-1.901-16.433-3.886-52.044-.934-89.802 2.974-38.035 10.877-76.966 27.876-101.048l-9.804-6.92c-19.001 26.918-27.039 68.707-30.036 107.033-3.018 38.602-1.003 74.992.978 92.116zm26.942-190.85c17.853-25.293 29.133-35.406 38.771-40.281 4.799-2.428 9.444-3.685 14.816-4.738 5.131-1.006 11.784-1.949 18.87-3.597l-2.718-11.688c-6.961 1.619-12.332 2.308-18.459 3.509-5.887 1.153-11.736 2.675-17.925 5.806-12.339 6.241-25.013 18.361-43.159 44.069zm76.849-52.749c11.368-38.21 37.039-62.422 76.938-75.457 40.3-13.167 95.028-14.859 163.653-7.29l1.316-11.928c-69.175-7.63-125.947-6.155-168.696 7.811-43.151 14.098-72.081 40.985-84.713 83.442z"/></g><path fill="#fff" stroke="#000" stroke-linecap="round" stroke-linejoin="round" stroke-width="8" d="M287.695 658.293c-10.935-10.935-10.935-28.663 0-39.598s28.663-10.935 39.598 0c9.974 9.974 10.85 25.602 2.628 36.569l32.162 32.162c4.842 4.842 4.842 12.693 0 17.536-4.843 4.842-12.694 4.842-17.536 0l-38.507-38.506a27.9 27.9 0 0 1-18.345-8.163"/><rect width="8" height="16" fill="#000" rx="4" transform="scale(-1 1)rotate(45 -900.102 -45.228)"/><g fill-rule="evenodd" stroke="#000" stroke-linecap="round" stroke-linejoin="round" stroke-width="16"><path d="m638.453 711.045-2.092 23.909M662.453 711.045l2.092 23.909M612.36 713.116l-3.34 23.767M688.545 714.116l3.34 23.767M585.021 718.387 579 735M715.885 723.387l5.513 19.225M555.76 720.649l-6.003 16.455M526 729l-5 17M498.8 743.875 493.304 768M385 677h-13M391 706l-14 3M400.397 732.58 382 737M409.397 759.58l-18.794 6.84M428 785l-17.397 11.42M449 806l-15.397 13.42M468.228 824.006l-10.397 15.42M496 833l-5.846 18.15M526 837l-3.545 16.95M555.483 835.317l-2.853 18.964M583.936 833.697l2.423 19.135M611 829l4.79 15.016M637 819l6 14M662 806l6.718 12.627"/></g></g></svg>